<?xml version="1.0" encoding="UTF-8" standalone="no"?>
<!-- Created with Inkscape (http://www.inkscape.org/) -->

<svg
   width="494.28"
   height="226.612"
   viewBox="0 0 494.28 226.612"
   version="1.1"
   id="svg5"
   inkscape:version="1.1.2 (0a00cf5339, 2022-02-04)"
   sodipodi:docname="icon.svg"
   xmlns:inkscape="http://www.inkscape.org/namespaces/inkscape"
   xmlns:sodipodi="http://sodipodi.sourceforge.net/DTD/sodipodi-0.dtd"
   xmlns:xlink="http://www.w3.org/1999/xlink"
   xmlns="http://www.w3.org/2000/svg"
   xmlns:svg="http://www.w3.org/2000/svg">
  <sodipodi:namedview
     id="namedview7"
     pagecolor="#505050"
     bordercolor="#ffffff"
     borderopacity="1"
     inkscape:pageshadow="0"
     inkscape:pageopacity="0"
     inkscape:pagecheckerboard="1"
     inkscape:document-units="px"
     showgrid="false"
     inkscape:zoom="0.67521728"
     inkscape:cx="186.6066"
     inkscape:cy="188.82811"
     inkscape:window-width="1366"
     inkscape:window-height="715"
     inkscape:window-x="0"
     inkscape:window-y="25"
     inkscape:window-maximized="1"
     inkscape:current-layer="layer1"
     inkscape:object-paths="false"
     inkscape:snap-intersection-paths="true"
     inkscape:snap-smooth-nodes="true"
     inkscape:snap-midpoints="true"
     inkscape:snap-nodes="false"
     inkscape:snap-object-midpoints="true"
     width="494.28px" />
  <defs
     id="defs2">
    <linearGradient
       inkscape:collect="always"
       id="linearGradient107859-1-1-9">
      <stop
         style="stop-color:#800000;stop-opacity:1;"
         offset="0"
         id="stop107855" />
      <stop
         style="stop-color:#800000;stop-opacity:0;"
         offset="1"
         id="stop107857" />
    </linearGradient>
    <inkscape:perspective
       sodipodi:type="inkscape:persp3d"
       inkscape:vp_x="0 : -29.388001 : 1"
       inkscape:vp_y="0 : 1000 : 0"
       inkscape:vp_z="512 : -29.388001 : 1"
       inkscape:persp3d-origin="256 : -114.72133 : 1"
       id="perspective94260" />
    <inkscape:path-effect
       effect="fillet_chamfer"
       id="path-effect93148"
       is_visible="true"
       lpeversion="1"
       satellites_param="F,0,0,1,0,14,0,1 @ F,0,0,1,0,14,0,1 @ F,0,0,1,0,14,0,1 @ F,0,0,1,0,14,0,1"
       unit="px"
       method="arc"
       mode="F"
       radius="14"
       chamfer_steps="1"
       flexible="false"
       use_knot_distance="true"
       apply_no_radius="true"
       apply_with_radius="true"
       only_selected="true"
       hide_knots="false" />
    <inkscape:path-effect
       effect="fillet_chamfer"
       id="path-effect92938"
       is_visible="true"
       lpeversion="1"
       satellites_param="IC,1,0,1,0,0.065026689,0,7 @ IC,1,0,1,0,1,0,7 @ IC,1,0,1,0,0.16931637,0,7 @ IC,1,0,1,0,4.2489706,0,7 @ IC,1,0,1,0,0.065026689,0,7 @ IC,1,0,1,0,1.7464147,0,7 @ IC,1,0,1,0,0.16931637,0,7 @ IC,1,0,1,0,1.7464147,0,7"
       unit="px"
       method="auto"
       mode="IC"
       radius="32"
       chamfer_steps="7"
       flexible="true"
       use_knot_distance="true"
       apply_no_radius="true"
       apply_with_radius="true"
       only_selected="false"
       hide_knots="false" />
    <linearGradient
       inkscape:collect="always"
       xlink:href="#linearGradient107859-1-1-9"
       id="linearGradient109327"
       gradientUnits="userSpaceOnUse"
       x1="67.052948"
       y1="299.3121"
       x2="469.05295"
       y2="565.04266"
       gradientTransform="matrix(1.0039046,0,0,1.0043142,-2.0208408,-131.62296)" />
  </defs>
  <g
     inkscape:label="Katman 1"
     inkscape:groupmode="layer"
     id="layer1"
     style="display:inline">
    <g
       id="g107"
       transform="translate(-8.8860626,-142.69406)">
      <rect
         style="fill:#1db954;fill-opacity:1;fill-rule:evenodd;stroke-width:1.51722"
         id="rect3815"
         width="492.30563"
         height="225.63843"
         x="9.8471832"
         y="143.18079"
         ry="44.011997" />
      <path
         id="text5612"
         style="font-style:normal;font-variant:normal;font-weight:normal;font-stretch:normal;font-size:200.713px;line-height:1.25;font-family:OpenSymbol;-inkscape-font-specification:OpenSymbol;letter-spacing:-10.9202px;word-spacing:0px;fill:#ffffff;fill-opacity:1;stroke:none;stroke-width:4.52857"
         d="m 346.57774,327.14199 c 7.86104,0 15.72206,0 23.5831,0 0,-2.50244 0,-5.00489 0,-7.50732 2.7322,2.12149 5.4184,4.35674 8.55187,5.87517 5.64648,2.86519 12.02052,4.03494 18.31055,4.18785 6.02799,0.0914 12.14881,-0.80367 17.67852,-3.28958 2.08708,-0.91335 4.08922,-2.01995 5.98144,-3.2886 0.34567,-0.22917 0.76328,-0.52649 1.18629,-0.83023 5.29799,-3.90487 9.58578,-9.09017 12.80703,-14.80712 2.3958,-4.26003 4.18869,-8.84899 5.41396,-13.57756 0.0913,-0.39167 0.24081,-0.94484 0.33672,-1.37902 1.69157,-7.34822 2.23454,-14.93328 1.89661,-22.4579 -0.0242,-0.39887 -0.0697,-1.23684 -0.0882,-1.64107 -0.56162,-10.01193 -2.99176,-20.06939 -8.13075,-28.75098 -4.55201,-7.65036 -11.14513,-14.32156 -19.37989,-17.91864 -8.3909,-3.6517 -17.91347,-4.03477 -26.8058,-2.24739 -5.70738,1.19706 -11.12178,3.74977 -15.65512,7.42188 -0.70109,0.53158 -1.40218,1.06317 -2.10328,1.59475 0,-15.41007 0,-30.82014 0,-46.23021 -7.86104,0 -15.72207,0 -23.58311,0 0,48.28199 0,96.56398 0,144.84597 z M 155.94225,185.49003 c -3.00739,0.0494 -6.01291,0.24045 -8.99856,0.60813 -0.35193,0.0455 -1.0736,0.14717 -1.56707,0.21417 -0.68554,0.1097 -1.68591,0.25854 -2.51123,0.42218 -8.76646,1.60158 -17.37301,5.20203 -23.90626,11.38346 -4.70787,4.39198 -8.25224,10.04354 -9.97139,16.26085 -0.52437,1.80982 -0.91824,3.65696 -1.19352,5.52078 -0.086,0.57376 -0.19397,1.42442 -0.2588,2.11083 -0.48085,5.18339 -0.18236,10.45899 1.00703,15.53062 0.58886,2.39947 1.52289,4.88841 2.57798,7.00104 0.28323,0.56158 0.55595,1.07474 0.82736,1.53994 0.59475,1.0572 1.40921,2.30544 2.21561,3.36169 3.96235,5.20368 9.63766,8.82875 15.55848,11.43662 5.85462,2.56533 12.05293,4.2536 18.31115,5.49801 5.10242,1.04345 10.37981,1.92508 15.48289,3.21598 4.78833,1.29375 9.65911,3.03004 13.39659,6.41026 2.56257,2.38515 4.08379,5.7425 4.46884,9.19991 0.56727,4.13038 0.13164,8.53048 -1.87716,12.23607 -2.07468,3.71341 -5.6889,6.32722 -9.5969,7.85281 -5.71063,2.27989 -11.95299,2.75333 -18.04568,2.66696 -10.1514,-0.23151 -20.10936,-2.9823 -29.33291,-7.1291 -4.09103,-1.81461 -8.04125,-3.92705 -11.93002,-6.13511 -1.17375,-0.68531 -2.79045,0.38716 -2.7368,1.72181 -0.0837,1.52233 0.0331,3.05035 -0.0218,4.57552 0,6.41292 0,12.82584 0,19.23877 13.17432,4.9025 26.93585,8.68018 41.03906,9.34757 0.91032,0.0383 2.06561,0.079 3.07022,0.0981 8.47366,0.14103 17.01694,-0.6275 25.20718,-2.87384 8.1105,-2.2844 15.94617,-6.40363 21.45705,-12.90519 4.3448,-5.10048 7.11783,-11.45187 8.15418,-18.05631 0.61739,-3.58948 0.82739,-7.24556 0.67517,-10.88362 -0.0189,-0.3243 -0.0508,-1.0417 -0.0901,-1.51966 -0.34405,-5.19592 -1.48637,-10.37598 -3.77719,-15.07359 -2.38256,-5.06838 -6.07777,-9.46484 -10.52777,-12.8466 -0.91204,-0.70174 -1.82906,-1.34673 -2.72955,-1.93789 -6.91632,-4.49045 -14.87712,-7.05891 -22.89541,-8.74755 -6.72071,-1.45145 -13.50881,-2.60107 -20.17851,-4.28135 -3.50425,-0.95284 -7.0091,-2.14661 -10.07663,-4.12742 -2.26193,-1.55741 -3.66806,-4.08908 -4.2326,-6.73752 -0.68349,-3.07395 -0.56829,-6.31499 0.17135,-9.36646 0.93019,-3.4758 3.20741,-6.5403 6.24975,-8.45766 4.57887,-3.03991 10.14136,-4.08382 15.53448,-4.50182 9.67251,-0.72382 19.3896,1.15568 28.44677,4.49531 4.67563,1.67348 9.20614,3.72857 13.66083,5.9114 1.17241,0.33856 2.4966,-0.57675 2.51138,-1.82188 0.0875,-1.4766 -0.0392,-2.95839 0.0204,-4.43777 0,-6.10632 0,-12.21266 0,-18.31898 -7.9895,-2.73167 -16.17851,-4.92093 -24.5191,-6.26816 -0.50066,-0.0712 -1.3094,-0.19617 -1.9282,-0.28796 -3.50811,-0.50073 -7.07489,-0.85784 -10.55497,-1.01164 -2.19312,-0.11297 -4.38991,-0.14262 -6.58566,-0.1317 z m 98.86781,2.37787 c -12.17787,0 -24.35575,0 -36.53362,0 0,46.4247 0,92.84939 0,139.27409 15.0787,-0.0276 30.15848,0.0688 45.23643,-0.0802 12.65909,-0.37201 25.46552,-2.054 37.27573,-6.82789 9.23414,-3.72918 17.72432,-9.70614 23.5677,-17.85142 6.21491,-8.53436 9.59594,-18.83392 11.05474,-29.21333 0.51222,-3.45815 0.8134,-6.94483 0.97656,-10.43608 0.0242,-0.69653 0.0658,-1.66719 0.0777,-2.47013 0.17045,-10.17315 -0.62989,-20.46898 -3.58218,-30.24871 -1.04779,-3.46227 -2.31762,-6.72532 -3.93824,-9.9764 -3.07777,-6.24413 -7.59573,-11.94109 -12.8706,-16.3198 -4.40587,-3.71803 -9.48278,-6.56988 -14.78901,-8.78704 -0.418,-0.16275 -0.96736,-0.39726 -1.43832,-0.57672 -8.3831,-3.26433 -17.46052,-4.97746 -26.464,-5.83041 -6.17208,-0.57287 -12.37739,-0.69616 -18.5729,-0.65599 z M 69.580754,327.14199 c 8.362227,0 16.724454,0 25.08668,0 0,-46.4247 0,-92.84939 0,-139.27409 -8.362226,0 -16.724453,0 -25.08668,0 0,46.4247 0,92.84939 0,139.27409 z M 245.16812,209.77116 c 6.44899,0.0291 12.89923,-0.0626 19.34735,0.0546 8.67337,0.26446 17.50271,1.49524 25.42333,5.2158 5.42234,2.55013 10.16823,6.57797 13.37827,11.65421 3.98229,6.25576 5.80312,13.6261 6.61515,20.92721 0.6665,6.35477 0.64779,12.78023 0.0465,19.13917 -0.79455,7.60796 -2.65886,15.30505 -6.84964,21.79792 -2.51012,3.89903 -5.90526,7.21252 -9.87964,9.60467 -6.86293,4.17377 -14.88879,5.93741 -22.80612,6.67255 -6.10526,0.55308 -12.24351,0.37355 -18.36575,0.40208 -2.9048,-0.0125 -5.80962,0.004 -8.71443,0.003 0,-31.8237 0,-63.6474 0,-95.4711 0.60166,0 1.20334,0 1.805,0 z m 149.08524,29.54101 c 5.69253,-0.0874 11.55631,2.05458 15.3653,6.38508 4.66916,5.06179 7.04237,11.82113 8.00822,18.54298 0.77646,5.354 0.83371,10.80027 0.41934,16.18856 -0.61279,6.74632 -2.25634,13.61153 -6.13452,19.26725 -2.6131,3.85236 -6.4399,6.98306 -10.96765,8.24714 -4.24566,1.23611 -8.83306,1.19753 -13.1049,0.10782 -4.3858,-1.17328 -8.22319,-4.00763 -10.86165,-7.67526 -4.0334,-5.48705 -5.75469,-12.29441 -6.45328,-18.97379 -0.60894,-6.23548 -0.47052,-12.56235 0.56028,-18.74641 1.05595,-5.90988 3.18843,-11.81098 7.1724,-16.39484 3.06054,-3.4788 7.29278,-5.99165 11.91491,-6.62654 1.34863,-0.22071 2.71569,-0.31558 4.08155,-0.32199 z" />
      <path
         id="path92603"
         style="font-style:normal;font-variant:normal;font-weight:normal;font-stretch:normal;font-size:200.713px;line-height:1.25;font-family:OpenSymbol;-inkscape-font-specification:OpenSymbol;letter-spacing:-10.9202px;word-spacing:0px;fill:#ffffff;fill-opacity:1;stroke:none;stroke-width:4.52857"
         d="m 346.57774,327.14199 c 7.86104,0 15.72206,0 23.5831,0 0,-2.50244 0,-5.00489 0,-7.50732 2.7322,2.12149 5.4184,4.35674 8.55187,5.87517 5.64648,2.86519 12.02052,4.03494 18.31055,4.18785 6.02799,0.0914 12.14881,-0.80367 17.67852,-3.28958 2.08708,-0.91335 4.08922,-2.01995 5.98144,-3.2886 0.34567,-0.22917 0.76328,-0.52649 1.18629,-0.83023 5.29799,-3.90487 9.58578,-9.09017 12.80703,-14.80712 2.3958,-4.26003 4.18869,-8.84899 5.41396,-13.57756 0.0913,-0.39167 0.24081,-0.94484 0.33672,-1.37902 1.69157,-7.34822 2.23454,-14.93328 1.89661,-22.4579 -0.0242,-0.39887 -0.0697,-1.23684 -0.0882,-1.64107 -0.56162,-10.01193 -2.99176,-20.06939 -8.13075,-28.75098 -4.55201,-7.65036 -11.14513,-14.32156 -19.37989,-17.91864 -8.3909,-3.6517 -17.91347,-4.03477 -26.8058,-2.24739 -5.70738,1.19706 -11.12178,3.74977 -15.65512,7.42188 -0.70109,0.53158 -1.40218,1.06317 -2.10328,1.59475 0,-15.41007 0,-30.82014 0,-46.23021 -7.86104,0 -15.72207,0 -23.58311,0 0,48.28199 0,96.56398 0,144.84597 z M 155.94225,185.49003 c -3.00739,0.0494 -6.01291,0.24045 -8.99856,0.60813 -0.35193,0.0455 -1.0736,0.14717 -1.56707,0.21417 -0.68554,0.1097 -1.68591,0.25854 -2.51123,0.42218 -8.76646,1.60158 -17.37301,5.20203 -23.90626,11.38346 -4.70787,4.39198 -8.25224,10.04354 -9.97139,16.26085 -0.52437,1.80982 -0.91824,3.65696 -1.19352,5.52078 -0.086,0.57376 -0.19397,1.42442 -0.2588,2.11083 -0.48085,5.18339 -0.18236,10.45899 1.00703,15.53062 0.58886,2.39947 1.52289,4.88841 2.57798,7.00104 0.28323,0.56158 0.55595,1.07474 0.82736,1.53994 0.59475,1.0572 1.40921,2.30544 2.21561,3.36169 3.96235,5.20368 9.63766,8.82875 15.55848,11.43662 5.85462,2.56533 12.05293,4.2536 18.31115,5.49801 5.10242,1.04345 10.37981,1.92508 15.48289,3.21598 4.78833,1.29375 9.65911,3.03004 13.39659,6.41026 2.56257,2.38515 4.08379,5.7425 4.46884,9.19991 0.56727,4.13038 0.13164,8.53048 -1.87716,12.23607 -2.07468,3.71341 -5.6889,6.32722 -9.5969,7.85281 -5.71063,2.27989 -11.95299,2.75333 -18.04568,2.66696 -10.1514,-0.23151 -20.10936,-2.9823 -29.33291,-7.1291 -4.09103,-1.81461 -8.04125,-3.92705 -11.93002,-6.13511 -1.17375,-0.68531 -2.79045,0.38716 -2.7368,1.72181 -0.0837,1.52233 0.0331,3.05035 -0.0218,4.57552 0,6.41292 0,12.82584 0,19.23877 13.17432,4.9025 26.93585,8.68018 41.03906,9.34757 0.91032,0.0383 2.06561,0.079 3.07022,0.0981 8.47366,0.14103 17.01694,-0.6275 25.20718,-2.87384 8.1105,-2.2844 15.94617,-6.40363 21.45705,-12.90519 4.3448,-5.10048 7.11783,-11.45187 8.15418,-18.05631 0.61739,-3.58948 0.82739,-7.24556 0.67517,-10.88362 -0.0189,-0.3243 -0.0508,-1.0417 -0.0901,-1.51966 -0.34405,-5.19592 -1.48637,-10.37598 -3.77719,-15.07359 -2.38256,-5.06838 -6.07777,-9.46484 -10.52777,-12.8466 -0.91204,-0.70174 -1.82906,-1.34673 -2.72955,-1.93789 -6.91632,-4.49045 -14.87712,-7.05891 -22.89541,-8.74755 -6.72071,-1.45145 -13.50881,-2.60107 -20.17851,-4.28135 -3.50425,-0.95284 -7.0091,-2.14661 -10.07663,-4.12742 -2.26193,-1.55741 -3.66806,-4.08908 -4.2326,-6.73752 -0.68349,-3.07395 -0.56829,-6.31499 0.17135,-9.36646 0.93019,-3.4758 3.20741,-6.5403 6.24975,-8.45766 4.57887,-3.03991 10.14136,-4.08382 15.53448,-4.50182 9.67251,-0.72382 19.3896,1.15568 28.44677,4.49531 4.67563,1.67348 9.20614,3.72857 13.66083,5.9114 1.17241,0.33856 2.4966,-0.57675 2.51138,-1.82188 0.0875,-1.4766 -0.0392,-2.95839 0.0204,-4.43777 0,-6.10632 0,-12.21266 0,-18.31898 -7.9895,-2.73167 -16.17851,-4.92093 -24.5191,-6.26816 -0.50066,-0.0712 -1.3094,-0.19617 -1.9282,-0.28796 -3.50811,-0.50073 -7.07489,-0.85784 -10.55497,-1.01164 -2.19312,-0.11297 -4.38991,-0.14262 -6.58566,-0.1317 z m 98.86781,2.37787 c -12.17787,0 -24.35575,0 -36.53362,0 0,46.4247 0,92.84939 0,139.27409 15.0787,-0.0276 30.15848,0.0688 45.23643,-0.0802 12.65909,-0.37201 25.46552,-2.054 37.27573,-6.82789 9.23414,-3.72918 17.72432,-9.70614 23.5677,-17.85142 6.21491,-8.53436 9.59594,-18.83392 11.05474,-29.21333 0.51222,-3.45815 0.8134,-6.94483 0.97656,-10.43608 0.0242,-0.69653 0.0658,-1.66719 0.0777,-2.47013 0.17045,-10.17315 -0.62989,-20.46898 -3.58218,-30.24871 -1.04779,-3.46227 -2.31762,-6.72532 -3.93824,-9.9764 -3.07777,-6.24413 -7.59573,-11.94109 -12.8706,-16.3198 -4.40587,-3.71803 -9.48278,-6.56988 -14.78901,-8.78704 -0.418,-0.16275 -0.96736,-0.39726 -1.43832,-0.57672 -8.3831,-3.26433 -17.46052,-4.97746 -26.464,-5.83041 -6.17208,-0.57287 -12.37739,-0.69616 -18.5729,-0.65599 z M 69.580754,327.14199 c 8.362227,0 16.724454,0 25.08668,0 0,-46.4247 0,-92.84939 0,-139.27409 -8.362226,0 -16.724453,0 -25.08668,0 0,46.4247 0,92.84939 0,139.27409 z M 245.16812,209.77116 c 6.44899,0.0291 12.89923,-0.0626 19.34735,0.0546 8.67337,0.26446 17.50271,1.49524 25.42333,5.2158 5.42234,2.55013 10.16823,6.57797 13.37827,11.65421 3.98229,6.25576 5.80312,13.6261 6.61515,20.92721 0.6665,6.35477 0.64779,12.78023 0.0465,19.13917 -0.79455,7.60796 -2.65886,15.30505 -6.84964,21.79792 -2.51012,3.89903 -5.90526,7.21252 -9.87964,9.60467 -6.86293,4.17377 -14.88879,5.93741 -22.80612,6.67255 -6.10526,0.55308 -12.24351,0.37355 -18.36575,0.40208 -2.9048,-0.0125 -5.80962,0.004 -8.71443,0.003 0,-31.8237 0,-63.6474 0,-95.4711 0.60166,0 1.20334,0 1.805,0 z m 149.08524,29.54101 c 5.69253,-0.0874 11.55631,2.05458 15.3653,6.38508 4.66916,5.06179 7.04237,11.82113 8.00822,18.54298 0.77646,5.354 0.83371,10.80027 0.41934,16.18856 -0.61279,6.74632 -2.25634,13.61153 -6.13452,19.26725 -2.6131,3.85236 -6.4399,6.98306 -10.96765,8.24714 -4.24566,1.23611 -8.83306,1.19753 -13.1049,0.10782 -4.3858,-1.17328 -8.22319,-4.00763 -10.86165,-7.67526 -4.0334,-5.48705 -5.75469,-12.29441 -6.45328,-18.97379 -0.60894,-6.23548 -0.47052,-12.56235 0.56028,-18.74641 1.05595,-5.90988 3.18843,-11.81098 7.1724,-16.39484 3.06054,-3.4788 7.29278,-5.99165 11.91491,-6.62654 1.34863,-0.22071 2.71569,-0.31558 4.08155,-0.32199 z" />
      <rect
         style="fill:#0088ff;fill-opacity:1;fill-rule:nonzero;stroke-width:1.51722"
         id="rect94506"
         width="492.30563"
         height="225.63843"
         x="9.8471832"
         y="143.18079"
         ry="44.011997" />
      <rect
         style="display:inline;opacity:1;fill:url(#linearGradient109327);fill-opacity:1;fill-rule:nonzero;stroke-width:1.52345"
         id="rect3815-9"
         width="494.22787"
         height="226.61188"
         x="8.8860626"
         y="142.69406"
         ry="44.201874" />
      <rect
         style="display:inline;opacity:1;fill:#0088ff;fill-opacity:0;fill-rule:nonzero;stroke-width:1.51722"
         id="rect94506-1"
         width="492.30563"
         height="225.63843"
         x="9.8471832"
         y="143.18079"
         ry="44.011997" />
      <path
         id="text707"
         style="font-style:normal;font-variant:normal;font-weight:normal;font-stretch:normal;font-size:190px;line-height:1.25;font-family:OpenSymbol;-inkscape-font-specification:OpenSymbol;letter-spacing:-5px;word-spacing:-5px;fill:#ffffff"
         d="m 358.79686,330.83463 c 8.38802,0 16.77604,0 25.16406,0 0,-2.51888 0,-5.03776 0,-7.55664 2.9594,2.20202 5.85503,4.54993 9.22903,6.10329 6.16282,2.97808 13.07845,4.1249 19.88229,4.13957 0.75535,1e-4 1.66147,-0.0281 2.26048,-0.0565 5.66592,-0.24374 11.31976,-1.47808 16.43122,-3.97428 5.57258,-2.63582 10.4233,-6.64159 14.33925,-11.38009 5.02074,-5.99405 8.58864,-13.13283 10.7425,-20.63083 0.22914,-0.79856 0.51988,-1.88392 0.73474,-2.80302 0.42086,-1.742 0.70554,-3.32705 1.01916,-5.10714 1.59094,-9.70195 1.49491,-19.65769 -0.01,-29.3632 -1.77605,-10.7179 -6.08353,-21.19197 -13.34958,-29.36818 -2.98023,-3.40341 -6.46266,-6.37899 -10.34378,-8.71003 -0.54033,-0.32979 -1.52786,-0.88451 -2.06445,-1.1582 -8.25944,-4.29333 -17.9245,-5.30201 -27.0625,-4.0332 -5.94001,0.76207 -11.74082,2.77562 -16.74651,6.08588 -1.73013,1.15576 -3.37135,2.43845 -5.06209,3.65044 0,-16.06445 0,-32.1289 0,-48.19335 -8.38802,0 -16.77604,0 -25.16406,0 0,50.78515 0,101.57031 0,152.35546 z M 146.47655,181.8737 c -10.03633,0.3622 -20.24972,2.3189 -29.03979,7.37216 -4.77919,2.69561 -9.02205,6.34987 -12.35279,10.71378 -0.22186,0.28835 -0.68374,0.91751 -0.97966,1.34641 -4.514026,6.37775 -6.589172,14.20476 -6.910295,21.94239 -0.157398,5.17405 0.315237,10.41505 1.801573,15.38759 1.879002,6.15871 5.534222,11.91975 10.541502,15.92126 0.63457,0.52063 1.17825,0.94576 1.88672,1.46484 7.12444,5.1511 15.59117,8.02821 24.06037,10.08481 7.82665,1.85152 15.85292,2.84285 23.56659,5.16324 4.56686,1.4376 9.1744,3.49358 12.39399,7.15498 2.85067,3.38893 3.75494,7.96381 3.63607,12.29062 -0.0794,4.64224 -1.74087,9.42121 -5.27225,12.56221 -4.38933,4.04943 -10.35818,5.7873 -16.15817,6.5436 -10.56357,1.32158 -21.35908,-0.12432 -31.40749,-3.5382 -7.48204,-2.50229 -14.58844,-6.0119 -21.41481,-9.94094 -1.331687,-0.81794 -3.124751,0.37947 -3.099909,1.88122 -0.0342,8.43403 -0.006,16.86964 -0.01533,25.30432 9.299979,3.46418 18.835389,6.37045 28.607419,8.15821 0.40485,0.0725 1.18348,0.20234 1.7314,0.29679 0.83254,0.15021 1.55892,0.24524 2.45563,0.38325 9.6897,1.41999 19.58083,1.54541 29.29539,0.2848 0.47509,-0.0728 1.30638,-0.1882 1.91797,-0.27734 8.88232,-1.33147 17.73555,-4.14496 25.05499,-9.48137 5.81073,-4.17798 10.33517,-10.07913 12.89226,-16.76105 2.3179,-5.97686 3.08972,-12.45935 2.98096,-18.83799 -0.18372,-6.65912 -1.45457,-13.39322 -4.57117,-19.33283 -2.68232,-5.28253 -6.70947,-9.82593 -11.51018,-13.28029 -7.49508,-5.46028 -16.44277,-8.50884 -25.43215,-10.45073 -7.59767,-1.69745 -15.30859,-2.89506 -22.83077,-4.91999 -3.27957,-0.95345 -6.56544,-2.10467 -9.43807,-3.98506 -2.22083,-1.54237 -3.73303,-3.96213 -4.30752,-6.59016 -0.92265,-3.75354 -0.74277,-7.78987 0.5054,-11.44647 1.32655,-3.60051 4.13182,-6.52814 7.51156,-8.28791 5.34998,-2.96209 11.57417,-3.73157 17.59467,-3.94157 10.40775,-0.29946 20.68732,2.28473 30.29025,6.13768 4.71228,1.86096 9.25588,4.10781 13.85157,6.23242 0,-9.15559 0,-18.31119 0,-27.46679 -2.49814,-0.85149 -4.86161,-1.60439 -7.39685,-2.35335 -2.82565,-0.84614 -5.85218,-1.64496 -8.60901,-2.3029 -1.13716,-0.25301 -2.24243,-0.52302 -3.29883,-0.73729 -9.3642,-2.01233 -18.95322,-2.96107 -28.53125,-2.69435 z m 108.8125,2.44922 c -12.13477,0 -24.26953,0 -36.4043,0 0,48.83724 0,97.67447 0,146.51171 15.97201,-0.0287 31.94534,0.0825 47.91642,-0.0934 13.78684,-0.41803 27.75891,-2.33961 40.51105,-7.83332 9.5046,-4.11772 18.13952,-10.59426 23.99499,-19.2144 3.54759,-5.11211 6.21011,-10.95791 8.02481,-16.81004 2.04122,-6.53011 3.10628,-13.32578 3.64257,-20.13476 0.0539,-0.86054 0.14727,-2.0075 0.185,-2.98116 0.20945,-3.99742 0.20772,-8.22267 8.7e-4,-12.31386 -0.5034,-10.95132 -2.45829,-21.99662 -7.16309,-31.969 -3.51586,-7.54833 -8.76872,-14.29374 -15.3452,-19.41688 -5.11883,-4.06707 -10.97822,-7.12148 -17.1014,-9.37184 -1.39713,-0.52242 -3.02403,-1.07141 -4.53513,-1.53076 -8.04834,-2.46099 -16.41363,-3.73417 -24.79105,-4.37744 -1.15123,-0.0753 -2.55772,-0.1818 -3.80858,-0.233 -4.9877,-0.24295 -10.07578,-0.24391 -15.12696,-0.23184 z M 52.244126,330.83463 c 8.913412,0 17.826823,0 26.740235,0 0,-48.83724 0,-97.67447 0,-146.51171 -8.913412,0 -17.826823,0 -26.740235,0 0,48.83724 0,97.67447 0,146.51171 z M 247.62499,207.72331 c 6.69902,0.0328 13.39983,-0.0709 20.09765,0.0625 8.99497,0.28644 18.15342,1.5567 26.36761,5.41899 6.42097,2.92601 11.83049,7.96836 15.21972,14.15511 4.19896,7.74352 5.70815,16.62301 6.13584,25.33204 0.35195,9.44517 -0.19412,19.07855 -3.15481,28.11729 -2.07631,6.2209 -5.51431,12.13693 -10.63916,16.33093 -5.64005,4.78322 -12.79102,7.36162 -19.96567,8.76709 -7.78619,1.55507 -15.75938,1.58255 -23.66703,1.52461 -4.13137,-0.0117 -8.26275,0.0107 -12.39415,0.002 0,-33.23698 0,-66.47395 0,-99.71093 0.66666,0 1.33333,0 2,0 z m 161.41992,30.98632 c 5.99176,-0.0913 12.15415,2.21692 16.10379,6.8262 4.98924,5.49335 7.37416,12.84107 8.30636,20.08591 0.83169,6.7512 0.78643,13.62631 -0.23857,20.35352 -1.08744,6.83464 -3.54176,13.71138 -8.35285,18.82733 -3.03647,3.22641 -7.13477,5.44455 -11.53272,6.07343 -5.08701,0.84023 -10.52341,0.27673 -15.12321,-2.14111 -4.76491,-2.55599 -8.2508,-7.01902 -10.35926,-11.92967 -3.2789,-7.45416 -3.9882,-15.737 -3.85653,-23.79357 0.18423,-7.67761 1.39437,-15.55327 5.1233,-22.36649 2.68656,-4.91629 7.00336,-9.14363 12.43393,-10.8358 2.41682,-0.77568 4.96191,-1.10453 7.49576,-1.09975 z" />
    </g>
  </g>
</svg>
